<svg width="1023" height="965" version="1.1" viewBox="190 190 1023 965" xmlns="http://www.w3.org/2000/svg" xmlns:xlink="http://www.w3.org/1999/xlink">
    <defs>
        <path id="a" d="m746.23 1461.8c20.938-74.186 58.645-139.12 107.86-191.85 115.76-124.03 295.17-180.55 469.77-131.28 248.83 70.23 393.64 328.76 323.45 577.45-70.189 248.69-328.8 393.35-577.63 323.12-136.94-38.651-242.38-134.33-297.81-254.02-17.17-28.699-54.874-55.627-75.6-75.937-31.466-30.836-53.271-76.247-53.271-76.247s64.962 34.754 75.109-34.091c6.8495-46.474 14.686-81.508 19.219-99.946 2.4428-12.41 5.4052-24.82 8.901-37.206z"/>
        <mask id="b" x="-1.0238514173998046" y="-1.0260405549626468" width="2.047702834799609" height="2.0520811099252936">
            <rect x="618.6" y="1095.6" width="1071.8" height="985.8" fill="#fff"/>
            <use fill="#000000" xlink:href="#a"/>
        </mask>
        <filter id="c" x="445" y="1085.6" width="1419" height="1342" filterUnits="userSpaceOnUse">
            <feOffset dx="0" dy="9" in="SourceGraphic" result="FeOffset1100Out"/>
            <feGaussianBlur in="FeOffset1100Out" result="FeGaussianBlur1101Out" stdDeviation="65.44 65.44"/>
        </filter>
    </defs>
    <g transform="translate(-453 -909)">
        <g>
            <title>Эллипс 1</title>
            <g filter="url(#c)">
                <use fill="none" mask="url(#b)" stroke="#000000" stroke-opacity=".05" stroke-width="48.8" xlink:href="#a"/>
                <use fill="#000000" fill-opacity=".05" xlink:href="#a"/>
            </g>
            <use fill="#ffffff" xlink:href="#a"/>
        </g>
    </g>
</svg>