<svg xmlns="http://www.w3.org/2000/svg" width="22.438" height="12.781" viewBox="0 0 22.438 12.781">
  <metadata><?xpacket begin="﻿" id="W5M0MpCehiHzreSzNTczkc9d"?>
<x:xmpmeta xmlns:x="adobe:ns:meta/" x:xmptk="Adobe XMP Core 5.6-c138 79.159824, 2016/09/14-01:09:01        ">
   <rdf:RDF xmlns:rdf="http://www.w3.org/1999/02/22-rdf-syntax-ns#">
      <rdf:Description rdf:about=""/>
   </rdf:RDF>
</x:xmpmeta>
                                                                                                    
                                                                                                    
                                                                                                    
                                                                                                    
                                                                                                    
                                                                                                    
                                                                                                    
                                                                                                    
                                                                                                    
                                                                                                    
                                                                                                    
                                                                                                    
                                                                                                    
                                                                                                    
                                                                                                    
                                                                                                    
                                                                                                    
                                                                                                    
                                                                                                    
                                                                                                    
                           
<?xpacket end="w"?></metadata>
<defs>
    <style>
      .cls-1 {
        fill: #fff;
        fill-rule: evenodd;
      }
    </style>
  </defs>
  <path id="Vk" class="cls-1" d="M393.263,84.248H393.1a4.378,4.378,0,0,1-2.514-1.69c-0.381-.409-0.994-1.462-1.676-1.352-0.971.155-.43,1.837-0.838,2.535-0.324.558-1.725,0.439-2.682,0.338a8.308,8.308,0,0,1-6.033-3.548,30.316,30.316,0,0,1-3.519-5.915,5.1,5.1,0,0,1-.838-2.2,3.784,3.784,0,0,1,2.178-.338,6.115,6.115,0,0,1,2.179.169,4.521,4.521,0,0,1,.838,1.521,18.3,18.3,0,0,0,1.676,2.873c0.293,0.405.819,1.118,1.341,1.014s0.48-1.244.5-2.028a6.76,6.76,0,0,0-.167-2.535,2.392,2.392,0,0,0-1.173-.676c0.376-.744,1.424-0.845,2.681-0.845,1.054,0,2.433-.168,2.849.507,0.413,0.7.2,2.106,0.168,3.042-0.031,1.05-.237,2.047.5,2.535a1.934,1.934,0,0,0,1.173-1.014,13.811,13.811,0,0,0,1.843-2.873c0.229-.5.422-1.364,0.838-1.521a8.437,8.437,0,0,1,2.514-.169c0.767,0,2.1-.174,2.346.338a3.185,3.185,0,0,1-.5,1.859,33.093,33.093,0,0,1-2.179,2.873,2.5,2.5,0,0,0-.838,1.521,1.961,1.961,0,0,0,.838,1.183,17.3,17.3,0,0,1,2.011,2.2,2.8,2.8,0,0,1,.838,1.352C397.3,84.661,393.265,84.237,393.263,84.248Z" transform="translate(-375 -71.531)"/>
</svg>
